<?xml version="1.0" standalone="no"?>
<!DOCTYPE svg PUBLIC "-//W3C//DTD SVG 20010904//EN"
 "http://www.w3.org/TR/2001/REC-SVG-20010904/DTD/svg10.dtd">
<svg version="1.0" xmlns="http://www.w3.org/2000/svg"
 width="1600.000000pt" height="1600.000000pt" viewBox="0 0 1600.000000 1600.000000"
 preserveAspectRatio="xMidYMid meet">

<g transform="translate(0.000000,1600.000000) scale(0.100000,-0.100000)"
fill="#000000" stroke="none">
<path d="M7510 15725 c-1536 -105 -2946 -626 -4155 -1535 -1994 -1499 -3142
-3849 -3092 -6330 7 -324 15 -456 47 -745 182 -1620 892 -3168 2001 -4365
1222 -1317 2816 -2158 4580 -2414 612 -90 1372 -101 1987 -31 2206 253 4181
1428 5466 3253 359 510 680 1116 901 1702 225 597 376 1223 450 1862 60 528
60 1229 -1 1753 -187 1621 -854 3096 -1949 4315 -152 169 -509 519 -675 661
-519 444 -1024 781 -1616 1077 -900 450 -1829 706 -2879 792 -209 18 -842 21
-1065 5z m10 -615 c36 -29 71 -59 77 -65 10 -8 8 -16 -10 -36 -12 -14 -137
-155 -277 -313 -140 -158 -256 -291 -258 -296 -3 -8 23 -28 419 -306 124 -88
238 -169 254 -181 l30 -21 -48 -69 c-26 -37 -57 -81 -70 -97 l-23 -29 -360
268 c-584 435 -524 387 -505 410 9 12 164 199 346 418 284 342 331 395 345
384 8 -7 44 -37 80 -67z m798 54 l43 -5 -6 -47 c-12 -112 -77 -1143 -72 -1155
4 -10 37 -16 119 -20 62 -4 187 -12 277 -19 l164 -12 -6 -99 c-3 -54 -8 -101
-11 -105 -4 -3 -131 2 -284 12 -152 10 -325 22 -384 25 -59 4 -110 10 -113 13
-3 3 -1 70 4 149 5 79 26 394 46 699 20 305 38 560 40 566 3 10 93 9 183 -2z
m1192 -154 c30 -7 72 -16 93 -22 45 -11 46 12 -8 -238 -19 -85 -57 -261 -85
-390 -107 -494 -169 -772 -172 -775 -4 -4 -208 42 -214 47 -3 4 67 337 160
758 21 96 63 287 128 588 9 40 15 51 27 48 9 -2 41 -10 71 -16z m1065 -294
c18 -13 18 -23 -14 -382 -18 -203 -36 -400 -41 -439 -4 -38 -6 -71 -5 -73 2
-2 383 423 561 626 26 30 34 34 58 28 34 -8 38 34 -39 -451 -76 -480 -135
-856 -147 -940 -5 -38 -13 -73 -16 -77 -7 -7 -218 34 -228 44 -3 3 4 52 15
109 31 161 131 696 131 703 0 8 -46 -44 -322 -361 l-228 -261 -30 11 c-28 11
-30 15 -26 47 12 77 77 754 74 771 -2 13 -83 -90 -243 -310 -132 -181 -244
-330 -248 -330 -4 -1 -50 29 -102 66 -82 58 -93 69 -81 82 7 9 170 219 361
466 192 248 389 503 439 567 50 64 96 117 102 118 5 0 19 -6 29 -14z m-5095
-746 c529 -524 534 -529 516 -549 -10 -11 -51 -47 -90 -79 l-71 -59 -95 103
c-52 57 -98 103 -102 103 -4 1 -65 -26 -135 -60 -70 -34 -161 -77 -201 -95
l-74 -35 7 -72 c3 -40 11 -99 16 -132 15 -98 22 -90 -102 -110 -88 -14 -113
-15 -119 -6 -4 7 -10 56 -14 109 -4 54 -11 144 -17 202 -5 58 -27 314 -49 571
-22 256 -42 497 -46 537 -7 72 2 103 30 102 6 -1 252 -239 546 -530z m-1256
48 c3 -13 37 -210 76 -438 39 -228 75 -424 79 -435 5 -11 79 -116 165 -234 87
-118 154 -217 149 -221 -31 -27 -161 -120 -169 -120 -5 1 -81 100 -169 221
l-160 219 -402 207 c-222 114 -403 211 -403 216 0 14 104 197 112 197 5 0 149
-81 320 -180 172 -99 314 -176 316 -171 2 5 -31 162 -73 350 -41 189 -75 348
-75 355 0 7 39 20 103 33 132 27 126 27 131 1z m7834 -55 c11 -16 115 -218
231 -450 l211 -423 -48 0 c-27 0 -142 7 -257 16 -114 8 -209 14 -211 12 -2 -2
34 -133 80 -291 l84 -288 -32 7 c-17 3 -103 23 -191 44 -88 21 -299 71 -470
110 -206 48 -316 78 -329 90 -18 18 -5 35 434 609 249 325 459 591 466 591 7
0 21 -12 32 -27z m-3633 -424 c573 -45 1127 -174 1630 -377 195 -78 238 -98
430 -194 1042 -522 1898 -1362 2442 -2398 542 -1030 742 -2213 572 -3384 -146
-1009 -578 -1965 -1248 -2766 -125 -150 -423 -453 -581 -593 -823 -725 -1862
-1199 -2925 -1336 -312 -40 -398 -45 -745 -45 -347 1 -516 11 -780 50 -1180
172 -2236 692 -3092 1523 -448 435 -815 936 -1096 1496 -328 655 -504 1289
-573 2065 -24 276 -13 771 27 1095 147 1223 706 2366 1589 3250 998 1000 2339
1583 3745 1629 139 4 466 -4 605 -15z m-5360 -501 c2 -7 9 -191 15 -408 7
-217 13 -396 15 -398 1 -1 108 4 236 13 548 36 630 39 640 24 5 -8 9 -58 9
-111 0 -84 -2 -97 -17 -102 -10 -3 -142 -8 -293 -12 -151 -3 -315 -9 -364 -13
l-90 -6 192 -172 191 -172 -70 -78 c-39 -43 -74 -79 -78 -81 -6 -2 -101 83
-818 726 l-251 226 75 83 75 83 177 -159 c97 -87 177 -158 179 -156 1 1 -9
158 -23 348 -14 191 -25 351 -25 356 0 19 219 27 225 9z m10165 -131 l74 -78
-39 -38 c-22 -21 -233 -220 -470 -441 -236 -222 -453 -426 -482 -453 l-52 -50
-73 78 c-40 43 -74 81 -76 85 -1 4 210 207 470 451 599 563 562 529 568 526 3
-1 39 -37 80 -80z m515 -566 c3 -10 -74 -231 -174 -502 -99 -266 -179 -484
-178 -485 1 0 153 102 337 227 184 125 340 228 345 228 10 1 131 -177 124
-183 -2 -1 -273 -184 -602 -405 -559 -376 -599 -402 -612 -384 -8 10 -15 24
-15 30 0 7 81 230 180 494 99 265 179 483 178 484 -2 2 -155 -100 -341 -226
-185 -126 -341 -229 -345 -229 -9 0 -127 179 -121 184 4 3 431 291 939 632
257 173 271 180 285 135z m-11755 -333 c44 -28 79 -54 78 -58 -8 -18 -114
-179 -118 -179 -3 0 -42 23 -87 52 l-82 53 59 92 c33 51 61 92 64 92 3 0 41
-23 86 -52z m547 -352 c208 -134 446 -287 528 -340 83 -53 154 -103 159 -110
13 -19 -99 -190 -119 -182 -33 12 -1064 682 -1065 690 0 9 111 185 117 186 2
0 173 -110 380 -244z m11779 -1030 c272 -135 494 -247 494 -249 0 -16 -91
-212 -97 -210 -7 1 -133 68 -661 350 -57 30 -105 53 -106 52 -10 -11 -158
-550 -153 -555 3 -4 97 30 209 74 112 45 209 82 217 84 17 4 98 -189 85 -201
-10 -10 -800 -321 -813 -321 -5 0 -14 14 -20 30 -10 31 7 94 213 760 13 41 47
155 77 252 30 98 55 178 57 178 2 0 226 -110 498 -244z m-11463 187 c45 -20
86 -40 90 -43 11 -10 -303 -712 -321 -718 -7 -2 -883 391 -1215 545 -90 42
-89 34 -30 161 l38 82 140 -64 c395 -181 959 -436 965 -436 4 0 40 73 80 163
116 257 158 347 165 347 3 0 43 -17 88 -37z m12348 -1800 c-10 -21 -28 -58
-39 -83 -11 -25 -102 -211 -202 -415 l-181 -370 149 -146 149 -145 -554 -510
c-305 -280 -568 -520 -585 -534 l-32 -25 16 25 c76 120 597 1055 590 1059 -5
3 -74 49 -155 101 -81 52 -147 98 -147 101 0 7 1000 978 1008 979 1 0 -6 -17
-17 -37z m-13828 -440 c265 -256 491 -474 501 -484 19 -17 15 -21 -137 -120
-87 -56 -157 -105 -157 -109 0 -5 130 -237 288 -517 159 -279 295 -519 302
-533 14 -27 9 -22 -190 160 -58 53 -271 249 -475 436 -203 186 -396 364 -428
394 l-59 56 147 143 148 143 -24 51 c-13 29 -65 137 -116 240 -51 103 -93 190
-93 192 0 2 -42 89 -93 192 -99 199 -110 223 -101 223 3 0 222 -210 487 -467z
m1322 -2913 c25 -49 45 -94 45 -100 0 -5 -37 -27 -82 -49 -46 -22 -291 -142
-544 -268 l-461 -228 123 -249 c68 -137 124 -252 124 -257 0 -5 -42 -29 -92
-53 l-93 -46 -172 348 c-95 191 -173 352 -173 358 0 6 114 66 253 134 138 68
422 208 631 312 208 103 383 188 387 188 5 0 29 -40 54 -90z m10770 -32 c26
-112 157 -690 170 -750 9 -43 20 -78 24 -78 5 0 21 6 37 14 16 8 133 62 259
121 127 59 231 108 233 110 3 3 -387 209 -405 213 -7 2 -13 8 -13 13 0 11 78
168 91 185 11 14 782 -387 787 -409 2 -7 -5 -24 -15 -35 -15 -19 -1087 -502
-1113 -502 -10 0 -9 -3 -55 175 -20 77 -61 232 -90 345 -120 460 -136 523
-133 537 2 10 39 28 103 48 123 40 114 39 120 13z m-10181 -778 c32 -50 57
-92 55 -94 -2 -2 -39 -26 -81 -55 l-77 -51 -62 91 c-33 50 -57 95 -52 99 14
13 148 100 153 100 3 0 32 -41 64 -90z m-244 -165 c33 -49 56 -92 52 -96 -14
-13 -1017 -681 -1028 -686 -7 -3 -40 36 -74 88 -48 71 -59 94 -49 100 8 4 241
161 519 348 278 187 508 339 513 338 4 -1 34 -42 67 -92z m10093 -312 c199
-163 421 -345 492 -404 72 -59 160 -131 196 -161 67 -54 67 -54 49 -78 -20
-27 32 -28 -601 15 -205 14 -390 25 -412 23 l-39 -3 316 -259 c277 -227 314
-262 303 -275 -8 -9 -38 -45 -67 -81 -29 -36 -56 -66 -61 -68 -4 -2 -210 162
-456 364 -608 498 -663 545 -663 553 0 4 9 16 19 25 18 17 32 17 183 7 90 -6
228 -16 308 -21 80 -5 222 -15 315 -21 280 -18 288 -44 -73 251 -172 140 -312
259 -312 263 0 9 129 167 136 167 3 0 168 -134 367 -297z m-9620 -48 c38 -42
67 -81 64 -88 -3 -7 -79 -80 -170 -162 -91 -83 -166 -153 -166 -156 -1 -4 137
-9 307 -13 169 -4 328 -9 355 -12 l47 -6 0 -109 0 -109 -27 0 c-16 0 -194 11
-398 25 -203 14 -377 25 -386 25 -12 0 -16 -12 -17 -52 -7 -280 -24 -752 -28
-786 l-5 -43 -107 7 c-59 4 -110 9 -113 13 -3 3 6 171 19 374 14 202 23 370
19 373 -3 3 -87 -69 -187 -160 -100 -91 -185 -166 -190 -166 -4 0 -40 36 -79
79 l-71 79 272 249 c150 136 351 320 448 408 96 87 211 192 254 232 44 40 82
73 85 73 3 0 37 -34 74 -75z m8917 -1095 c243 -272 451 -504 461 -516 19 -20
19 -21 -63 -92 -44 -40 -84 -72 -87 -72 -4 0 -70 71 -148 158 -77 86 -290 323
-472 527 -182 203 -331 372 -331 375 0 3 37 39 81 79 79 70 82 72 99 54 10
-10 217 -241 460 -513z m-8198 338 c59 -12 108 -26 108 -32 0 -6 -36 -168 -79
-361 -43 -192 -77 -351 -76 -352 1 -2 140 77 311 174 170 97 316 178 324 180
10 2 32 -28 68 -98 30 -55 52 -102 50 -103 -4 -4 -251 -131 -560 -290 l-247
-127 -157 -212 c-86 -117 -160 -216 -164 -220 -8 -9 -180 110 -180 124 0 4 72
105 160 224 l161 217 24 131 c25 143 49 277 95 547 37 213 39 220 47 220 4 0
55 -10 115 -22z m7548 -502 c0 -3 -84 -197 -154 -356 -25 -57 -46 -107 -46
-111 0 -3 105 -11 233 -19 127 -7 262 -16 299 -19 l68 -6 -277 -431 c-152
-237 -285 -437 -296 -444 -16 -9 -22 -9 -32 2 -37 38 -805 1233 -801 1245 3 7
12 16 20 19 17 6 908 121 954 123 17 1 32 -1 32 -3z m-6317 -258 c15 -12 9
-74 -72 -756 -49 -408 -91 -745 -95 -749 -7 -7 -226 37 -226 46 0 3 9 60 20
126 11 66 20 128 20 137 0 13 -54 45 -202 119 l-201 101 -101 -101 c-56 -56
-106 -101 -111 -101 -6 1 -47 35 -93 78 l-82 77 217 202 c120 111 234 217 253
235 268 253 642 598 648 598 5 0 16 -6 25 -12z m5217 -723 c205 -302 386 -568
402 -590 33 -47 40 -38 -90 -117 -46 -28 -87 -46 -91 -42 -8 8 -161 249 -369
577 -41 65 -75 117 -77 115 -1 -2 1 -84 5 -183 4 -99 11 -286 15 -415 l7 -236
-27 -12 c-16 -7 -31 -9 -34 -4 -28 41 -494 642 -498 642 -8 0 -1 -63 47 -455
22 -181 40 -337 40 -345 0 -12 -25 -19 -112 -32 -62 -9 -116 -14 -119 -10 -4
4 -14 93 -23 197 -10 105 -26 282 -37 395 -76 804 -81 873 -67 881 7 5 21 9
30 9 14 0 191 -219 518 -642 24 -32 45 -56 46 -55 2 3 -13 585 -21 759 l-5
136 27 9 c23 8 31 6 44 -11 8 -12 184 -268 389 -571z m-1615 193 c2 -13 27
-160 55 -328 27 -168 77 -471 110 -674 33 -203 59 -374 57 -380 -3 -9 -207
-49 -215 -41 -2 1 -34 193 -73 426 -38 233 -90 547 -115 698 -25 150 -42 276
-39 280 6 6 160 37 197 40 11 0 20 -8 23 -21z m-1580 -115 c50 -76 62 -100 52
-109 -6 -6 -166 -109 -355 -229 -210 -134 -341 -223 -338 -231 3 -7 121 -155
263 -331 143 -175 262 -323 266 -330 9 -14 -168 -157 -183 -148 -5 3 -121 151
-257 328 -136 177 -284 370 -330 429 l-82 107 267 183 c147 100 347 237 446
305 98 68 180 123 182 123 2 0 33 -44 69 -97z m535 -10 c0 -102 20 -866 26
-1012 l6 -154 284 7 284 6 0 -104 0 -104 -62 -6 c-35 -3 -212 -8 -394 -12
l-332 -7 -6 194 c-14 445 -26 963 -26 1097 l0 142 110 0 110 0 0 -47z"/>
<path d="M5140 14014 c0 -12 47 -401 56 -455 l5 -37 137 65 c75 36 139 67 141
69 2 2 -41 52 -95 111 -178 191 -243 258 -244 247z"/>
<path d="M11904 13481 c-60 -79 -110 -146 -112 -151 -2 -4 10 -11 25 -14 61
-12 353 -40 358 -34 4 3 -32 81 -78 174 l-84 168 -109 -143z"/>
<path d="M11605 13089 c-72 -93 -131 -173 -133 -177 -2 -8 396 -108 402 -101
4 4 -131 439 -137 446 -2 1 -61 -74 -132 -168z"/>
<path d="M7740 13459 c-1218 -59 -2375 -521 -3305 -1320 -154 -132 -442 -420
-574 -574 -619 -720 -1044 -1593 -1225 -2516 -137 -696 -135 -1429 5 -2124
232 -1149 812 -2170 1686 -2971 401 -367 879 -684 1378 -916 1267 -588 2703
-667 4030 -223 1364 456 2490 1430 3145 2720 251 494 418 997 510 1540 132
778 99 1551 -100 2312 -415 1587 -1554 2928 -3060 3603 -626 281 -1277 435
-1990 470 -214 11 -269 11 -500 -1z m391 -978 c57 -27 286 -134 509 -239 1068
-500 1353 -637 1357 -648 4 -12 18 -14 -787 82 -899 106 -962 114 -993 120
-16 3 -166 89 -335 191 -169 102 -333 202 -365 221 -33 19 -55 38 -50 42 10
11 126 75 298 166 72 37 148 78 170 91 22 12 52 23 66 23 14 0 73 -22 130 -49z
m-920 -311 c18 -10 19 -26 19 -439 0 -350 -3 -431 -14 -440 -9 -8 -135 -10
-447 -9 l-434 3 -3 435 c-2 400 -1 436 15 448 22 16 834 18 864 2z m447 -222
c147 -89 286 -172 309 -185 24 -14 45 -28 48 -33 2 -4 -129 -88 -293 -185
-163 -98 -307 -185 -319 -193 l-23 -14 0 386 c0 212 2 386 6 386 3 0 125 -73
272 -162z m-1478 -467 c0 -126 -3 -237 -7 -247 -3 -9 -112 -139 -241 -288
-129 -149 -242 -284 -252 -300 l-18 -28 -13 23 c-9 18 -11 109 -6 398 5 348 7
375 24 392 23 23 482 279 500 279 10 0 13 -47 13 -229z m2752 -272 c933 -530
1476 -837 1782 -1009 152 -86 247 -146 262 -165 12 -16 47 -97 78 -180 30 -82
84 -228 120 -323 62 -162 74 -202 60 -202 -3 0 -67 42 -142 93 -411 281 -2738
1830 -2767 1843 -28 11 -102 14 -375 14 -188 0 -340 4 -340 9 0 5 6 14 14 20
36 30 533 321 548 321 10 0 352 -190 760 -421z m-167 372 c44 -5 330 -40 635
-76 305 -37 662 -79 794 -95 195 -23 242 -31 256 -47 17 -18 443 -1083 436
-1091 -5 -4 -41 16 -851 478 -368 210 -849 483 -1067 608 -219 124 -398 230
-398 235 0 10 23 8 195 -12z m-1605 -462 c0 -5 -35 -71 -77 -145 -51 -89 -86
-140 -103 -148 -14 -7 -56 -20 -95 -29 -87 -20 -264 -62 -370 -87 -391 -93
-683 -160 -698 -160 -10 0 -17 4 -15 9 4 14 393 466 449 524 l46 47 432 0
c298 0 431 -3 431 -11z m998 -5 c5 -9 7 -175 4 -383 -3 -319 -6 -368 -20 -378
-21 -17 -747 -19 -757 -2 -9 14 -10 753 -1 768 5 8 112 11 386 11 338 0 380
-2 388 -16z m803 -441 c2102 -1405 2329 -1558 2335 -1580 3 -13 1 -35 -4 -50
-22 -58 -231 -526 -239 -534 -5 -5 -33 15 -63 44 -55 52 -1229 1182 -1584
1525 -104 100 -200 198 -213 217 -13 19 -25 36 -26 37 -1 1 -191 5 -422 8
l-420 5 -3 373 c-1 204 1 372 6 372 4 0 289 -188 633 -417z m-1741 77 c0 -77
-4 -140 -8 -140 -9 0 -72 124 -72 143 -1 16 63 137 73 137 4 0 7 -63 7 -140z
m-208 -97 c8 -10 56 -97 107 -195 64 -124 91 -187 91 -212 0 -19 -20 -105 -45
-191 -29 -102 -42 -162 -36 -172 6 -11 497 -232 517 -233 17 -1 1 -134 -18
-157 -13 -16 -79 -17 -162 -3 -34 5 -169 26 -301 45 -132 20 -253 40 -270 46
-16 5 -57 38 -90 73 -76 79 -131 107 -298 151 -72 20 -172 49 -222 65 -88 28
-112 33 -147 31 -10 0 -93 -70 -185 -153 -401 -365 -464 -420 -469 -415 -6 6
-2 34 81 567 50 325 70 429 83 442 11 11 237 69 672 172 360 85 660 155 666
155 6 1 18 -7 26 -16z m1145 -475 c4 -7 10 -200 13 -428 l5 -415 425 -5 425
-5 5 -425 5 -425 425 -5 425 -5 5 -298 c4 -250 7 -299 20 -307 9 -6 139 -10
303 -10 158 0 288 -1 289 -2 1 -2 5 -109 8 -238 l5 -235 208 -3 c114 -1 207
-5 207 -8 0 -4 -39 -78 -86 -165 -56 -105 -91 -159 -102 -159 -8 0 -36 17 -61
38 -25 21 -262 212 -526 423 -264 212 -730 585 -1035 830 -305 245 -726 582
-935 749 -209 167 -386 311 -393 320 -15 18 -12 70 13 208 14 75 16 107 9 120
-6 9 -117 62 -248 117 -130 56 -244 109 -253 118 -15 15 -14 22 7 99 12 46 29
93 37 106 l13 22 390 0 c300 0 391 -3 397 -12z m867 -4 c9 -24 7 -667 -2 -682
-7 -9 -84 -12 -353 -10 l-344 3 -3 340 c-1 187 0 346 3 352 3 10 81 13 349 13
304 0 345 -2 350 -16z m474 -391 c163 -158 299 -291 300 -295 2 -5 -135 -7
-305 -6 l-308 3 -3 293 c-1 198 1 292 8 292 6 0 144 -129 308 -287z m-3115
-94 c94 -28 188 -56 207 -61 23 -7 59 -35 105 -84 91 -95 124 -109 316 -134
165 -21 319 -47 326 -54 12 -12 -173 -80 -423 -155 l-125 -38 -87 44 c-111 55
-185 83 -222 83 -17 0 -105 -40 -217 -98 -470 -246 -602 -312 -623 -312 -21 0
-219 119 -240 145 -7 9 85 98 333 322 430 389 434 393 458 393 10 0 97 -23
192 -51z m3491 -365 c14 -5 16 -46 16 -350 0 -329 -1 -344 -19 -354 -27 -14
-645 -14 -672 0 -18 10 -19 25 -19 348 0 250 3 341 12 350 9 9 98 12 339 12
180 0 334 -3 343 -6z m-2307 -86 c-2 -7 -34 -113 -71 -235 -36 -121 -79 -250
-95 -285 -25 -55 -105 -189 -323 -538 -69 -111 -69 -110 -14 -285 19 -60 31
-114 26 -119 -12 -12 -446 -55 -639 -63 l-164 -6 6 24 c4 13 14 60 23 104 l16
81 -35 89 c-62 161 -85 205 -109 214 -21 8 -150 28 -293 46 -28 3 -60 2 -73
-2 -12 -5 -77 -60 -143 -123 l-121 -114 50 -48 c28 -26 54 -48 59 -48 5 0 46
36 92 81 46 44 94 84 108 90 62 23 190 3 235 -38 30 -27 58 -89 65 -142 6 -50
-19 -195 -38 -217 -6 -7 -29 -15 -52 -18 -150 -18 -227 -32 -427 -77 -341 -76
-450 -93 -450 -69 0 6 13 65 29 133 39 165 76 326 97 417 40 179 254 560 314
560 10 0 67 -52 130 -120 70 -74 120 -120 132 -120 19 0 55 16 378 173 85 41
210 99 276 130 190 86 261 141 338 264 14 23 36 49 49 58 13 8 102 42 198 76
96 33 221 78 279 99 112 40 155 48 147 28z m843 -529 c2316 -1855 2277 -1824
2306 -1866 11 -17 65 -129 120 -250 l99 -218 -3 -150 c-7 -333 -17 -484 -33
-500 -14 -14 -545 -266 -592 -281 -19 -6 -19 -3 -13 72 8 89 26 263 56 559 12
110 22 224 23 254 l2 54 -90 80 c-278 247 -1732 1447 -2588 2137 -67 53 -120
104 -123 117 -3 12 8 64 24 115 17 51 52 163 77 248 53 175 53 174 68 162 7
-5 307 -245 667 -533z m2043 154 c216 -208 427 -412 470 -453 l77 -76 0 -147
c0 -83 -5 -157 -10 -168 -10 -17 -23 -19 -165 -19 -112 0 -156 3 -162 13 -4 6
-10 143 -13 302 l-5 290 -290 5 c-159 3 -296 9 -302 13 -17 11 -19 617 -3 617
6 0 187 -170 403 -377z m-3830 236 c56 -17 110 -33 120 -36 16 -5 16 -8 -5
-42 -40 -68 -63 -84 -238 -168 -96 -47 -260 -125 -363 -175 -154 -75 -193 -90
-211 -82 -13 5 -55 43 -95 85 l-72 77 33 20 c18 11 107 58 198 105 91 47 235
122 320 166 85 44 168 81 183 81 15 0 74 -14 130 -31z m1015 -643 c415 -341
494 -404 600 -485 64 -48 153 -119 197 -158 94 -81 246 -205 1120 -915 358
-290 656 -539 662 -552 11 -19 10 -50 -2 -162 -9 -77 -31 -289 -49 -473 -29
-282 -37 -337 -53 -352 -21 -20 -745 -359 -768 -359 -8 0 -15 3 -15 8 0 4 38
254 85 556 47 302 85 561 85 575 0 14 -6 33 -13 42 -7 8 -253 213 -547 454
-294 241 -569 466 -610 501 -41 34 -307 252 -590 483 -283 232 -521 432 -529
445 -14 22 -8 34 114 232 150 245 163 264 176 264 6 0 68 -47 137 -104z m2856
-2 c14 -13 16 -47 16 -215 0 -119 -4 -208 -10 -220 -10 -18 -23 -19 -223 -19
-152 0 -216 3 -225 12 -9 9 -12 72 -12 223 0 151 3 214 12 223 9 9 71 12 219
12 175 0 210 -2 223 -16z m494 -749 c1 -77 0 -150 -3 -162 -5 -23 -8 -23 -158
-23 -106 0 -157 4 -165 12 -13 13 -18 272 -6 302 6 14 27 16 168 14 l161 -3 3
-140z m-3323 -215 c209 -172 414 -340 455 -374 69 -57 524 -431 914 -750 269
-220 301 -249 304 -280 3 -23 -25 -221 -79 -566 -5 -36 -32 -208 -59 -383 -28
-175 -68 -404 -89 -510 -22 -106 -61 -295 -87 -422 -25 -126 -52 -236 -59
-244 -12 -12 -101 -22 -592 -67 l-73 -7 0 32 c0 18 7 62 15 99 8 37 46 231 85
432 39 201 80 408 90 460 11 52 49 248 85 435 36 187 73 375 82 418 13 69 13
80 0 100 -13 19 -309 334 -546 582 -42 44 -272 287 -511 540 -239 253 -468
496 -509 539 -87 93 -92 87 82 106 133 14 128 8 97 108 -25 79 -25 85 -2 73 9
-5 188 -150 397 -321z m-843 82 c24 -11 268 -263 744 -767 389 -412 756 -801
816 -863 60 -62 113 -124 118 -138 9 -23 -67 -442 -185 -1019 -8 -38 -51 -256
-95 -484 -45 -228 -86 -425 -91 -438 -9 -24 -684 -481 -695 -470 -7 7 9 86
136 672 22 99 69 317 105 485 86 401 112 521 184 848 33 151 57 281 54 290 -8
21 4 5 -607 797 -280 363 -517 665 -525 672 -12 9 -122 13 -436 13 -231 1
-440 5 -465 8 l-45 7 -27 160 c-15 88 -24 163 -20 167 5 5 116 15 248 24 189
13 453 31 734 52 8 1 31 -6 52 -16z m-129 -558 c21 -10 93 -95 212 -250 99
-130 329 -430 512 -667 183 -238 333 -441 335 -452 2 -11 0 -36 -4 -55 -75
-351 -108 -499 -115 -517 -7 -18 -91 104 -558 804 -324 486 -558 828 -570 833
-11 4 -130 15 -265 24 -296 21 -307 22 -319 44 -5 10 -5 38 0 67 4 28 8 69 8
92 1 23 5 53 11 67 l10 26 356 0 c303 0 361 -2 387 -16z m-462 -424 c74 -6
151 -15 172 -21 36 -10 59 -41 605 -861 530 -795 567 -854 566 -892 -1 -23
-18 -115 -37 -206 -98 -449 -189 -870 -197 -910 -23 -115 -82 -375 -87 -383
-3 -5 -20 -7 -37 -3 -67 12 -457 125 -471 136 -12 10 -12 18 1 58 49 159 364
1274 364 1289 0 23 -40 90 -340 573 -592 953 -750 1212 -750 1224 0 9 60 7
211 -4z m211 -974 c274 -442 500 -815 503 -828 3 -14 -31 -151 -90 -353 -52
-181 -95 -341 -95 -355 0 -14 -23 -93 -50 -175 -28 -83 -62 -193 -76 -245 -15
-52 -29 -101 -33 -108 -11 -19 -391 342 -391 371 0 11 74 208 165 438 91 229
165 425 165 435 0 29 -23 67 -231 385 -325 496 -459 716 -459 751 0 9 -16 42
-35 74 -20 33 -38 68 -41 80 -4 16 53 191 122 374 4 12 10 9 27 -12 12 -15
246 -389 519 -832z m-400 -267 c249 -406 328 -542 328 -566 0 -27 -216 -597
-257 -677 l-15 -28 -17 28 c-10 16 -62 110 -116 209 -54 99 -104 189 -111 200
-26 37 -15 84 57 248 39 88 72 171 72 183 0 13 -71 139 -158 280 l-158 256
-28 134 -29 134 34 44 c18 24 36 56 40 71 4 14 12 25 19 22 6 -2 159 -244 339
-538z m-297 -214 l119 -176 -12 -57 c-15 -71 -62 -166 -84 -170 -24 -5 -65 55
-82 121 -8 31 -20 120 -26 197 -7 77 -17 167 -24 200 -7 33 -12 60 -11 60 1 0
55 -79 120 -175z"/>
<path d="M11293 2816 c-89 -12 -165 -24 -168 -27 -5 -6 186 -308 196 -309 3 0
36 64 74 143 38 78 77 159 87 180 l18 37 -22 -1 c-13 -1 -96 -11 -185 -23z"/>
<path d="M11370 2406 c0 -3 53 -87 118 -187 l119 -181 116 178 c65 97 116 178
115 179 -7 6 -468 16 -468 11z"/>
<path d="M5041 2166 l-174 -174 141 -71 c78 -39 142 -69 142 -65 0 3 16 109
36 235 19 127 34 235 32 240 -2 5 -81 -69 -177 -165z"/>
</g>
</svg>
